<?xml version="1.0" encoding="UTF-8"?>
<svg id="Layer_2" data-name="Layer 2" xmlns="http://www.w3.org/2000/svg" viewBox="0 0 320.66 78.51">
  <defs>
    <style>
      .cls-1 {
        fill: #1c1c1c;
      }

      .cls-2 {
        fill: #4cab65;
      }
    </style>
  </defs>
  <g id="Layer_1-2" data-name="Layer 1">
    <g>
      <g>
        <path class="cls-1" d="m160.75,52.43v-13.82h2.5v6.35h.17l5.39-6.35h3.06l-5.34,6.2,5.39,7.62h-3.01l-4.12-5.92-1.53,1.81v4.12h-2.5Z"/>
        <path class="cls-1" d="m187.35,52.43l-3.9-13.82h2.69l2.49,10.15h.13l2.66-10.15h2.45l2.66,10.16h.12l2.49-10.16h2.69l-3.9,13.82h-2.47l-2.77-9.7h-.11l-2.77,9.7h-2.47Z"/>
        <path class="cls-1" d="m214.4,52.43v-13.82h8.99v2.1h-6.48v3.75h6.02v2.1h-6.02v3.77h6.54v2.1h-9.04Z"/>
        <path class="cls-1" d="m236.77,52.43v-13.82h8.99v2.1h-6.48v3.75h6.02v2.1h-6.02v3.77h6.54v2.1h-9.04Z"/>
        <path class="cls-1" d="m266.66,42.41c-.06-.59-.33-1.05-.79-1.38-.47-.33-1.07-.49-1.81-.49-.52,0-.97.08-1.34.24-.38.16-.66.37-.86.64-.2.27-.3.58-.3.93,0,.29.07.54.2.75s.31.39.54.54c.23.15.48.27.76.37s.56.18.84.25l1.29.32c.52.12,1.02.29,1.51.49.48.21.92.47,1.3.78.38.31.69.69.91,1.14s.34.97.34,1.57c0,.81-.21,1.52-.62,2.13-.41.62-1.01,1.09-1.79,1.44-.78.34-1.72.52-2.83.52s-2.01-.17-2.8-.5c-.79-.33-1.4-.82-1.85-1.46s-.68-1.42-.72-2.34h2.46c.04.48.18.88.45,1.2.26.32.6.56,1.02.71.42.16.89.24,1.41.24s1.02-.08,1.43-.25.73-.39.97-.69c.23-.29.35-.64.36-1.04,0-.36-.11-.66-.32-.89-.21-.24-.49-.43-.87-.59s-.8-.3-1.3-.43l-1.57-.4c-1.14-.29-2.04-.74-2.7-1.33-.66-.6-.99-1.39-.99-2.38,0-.81.22-1.53.67-2.14s1.05-1.09,1.81-1.43c.77-.34,1.63-.51,2.6-.51s1.84.17,2.58.51c.74.34,1.32.81,1.74,1.41.42.6.64,1.29.65,2.07h-2.41Z"/>
        <path class="cls-1" d="m282.31,52.43v-13.82h2.5v5.85h6.4v-5.85h2.51v13.82h-2.51v-5.87h-6.4v5.87h-2.5Z"/>
        <path class="cls-1" d="m309.05,52.43h-2.67l4.87-13.82h3.09l4.87,13.82h-2.67l-3.69-10.98h-.11l-3.68,10.98Zm.09-5.42h7.29v2.01h-7.29v-2.01Z"/>
      </g>
      <g>
        <path class="cls-1" d="m150.27,65h-4.36c-.08-.56-.24-1.07-.49-1.51-.25-.44-.56-.82-.94-1.13s-.83-.55-1.33-.72c-.5-.17-1.04-.25-1.63-.25-1.05,0-1.97.26-2.75.78-.78.52-1.39,1.28-1.82,2.27-.43.99-.65,2.19-.65,3.6s.22,2.67.65,3.66c.43.99,1.04,1.73,1.82,2.24s1.69.75,2.71.75c.58,0,1.11-.08,1.61-.23.49-.15.93-.38,1.32-.67s.7-.65.96-1.08c.25-.42.43-.91.53-1.45l4.36.02c-.11.93-.39,1.83-.84,2.7-.45.87-1.05,1.64-1.8,2.32-.75.68-1.65,1.22-2.68,1.61-1.04.39-2.21.59-3.52.59-1.82,0-3.44-.41-4.87-1.23-1.43-.82-2.55-2.01-3.38-3.57-.83-1.56-1.24-3.44-1.24-5.66s.42-4.11,1.25-5.67c.83-1.56,1.97-2.75,3.4-3.56s3.04-1.23,4.83-1.23c1.18,0,2.28.17,3.29.5,1.01.33,1.91.81,2.69,1.45.78.63,1.42,1.41,1.91,2.32.49.91.81,1.96.95,3.14Z"/>
        <path class="cls-1" d="m168.26,78.23h-4.61l7.03-20.36h5.55l7.02,20.36h-4.61l-5.1-15.71h-.16l-5.11,15.71Zm-.29-8h10.9v3.36h-10.9v-3.36Z"/>
        <path class="cls-1" d="m197.45,78.23v-20.36h8.03c1.54,0,2.86.29,3.95.88,1.09.59,1.92,1.4,2.49,2.44.57,1.04.86,2.23.86,3.58s-.29,2.54-.88,3.58c-.58,1.03-1.43,1.84-2.53,2.42-1.1.58-2.44.87-4,.87h-5.12v-3.45h4.42c.83,0,1.51-.14,2.05-.43.54-.29.94-.69,1.21-1.2s.4-1.1.4-1.77-.13-1.27-.4-1.78c-.27-.51-.67-.9-1.22-1.18-.54-.28-1.23-.42-2.07-.42h-2.9v16.84h-4.31Z"/>
        <path class="cls-1" d="m231.65,57.87v20.36h-4.31v-20.36h4.31Z"/>
        <path class="cls-1" d="m246.18,61.42v-3.55h16.72v3.55h-6.23v16.81h-4.26v-16.81h-6.23Z"/>
        <path class="cls-1" d="m278.44,78.23h-4.61l7.03-20.36h5.55l7.02,20.36h-4.61l-5.1-15.71h-.16l-5.11,15.71Zm-.29-8h10.9v3.36h-10.9v-3.36Z"/>
        <path class="cls-1" d="m307.63,78.23v-20.36h4.31v16.81h8.73v3.55h-13.04Z"/>
      </g>
      <path class="cls-2" d="m94.41,41.04c-10.06,0-19.74-1.61-28.81-4.59C103.56,18.05,144.9,5.52,188.43.02c-1.06-.01-2.12-.02-3.19-.02-46.47,0-90.12,12.07-127.98,33.27-3.18,1.77-6.32,3.61-9.41,5.52-1.39.85-2.76,1.72-4.13,2.6-2.41,1.54-4.79,3.12-7.15,4.75-2.51,1.72-4.99,3.5-7.44,5.31-10.32,7.64-20.05,16.02-29.13,25.07,11.17-8.41,22.8-16.24,34.84-23.44.04-.03.09-.05.13-.08,9.4-5.64,20.46-7.96,31.32-6.54,16.95,2.21,30.64,9.45,57.94,32.04l-30.19-30.19c22.38-1.52,42.45-11.47,57.06-26.69-15.66,12.17-35.33,19.42-56.69,19.42Z"/>
    </g>
  </g>
</svg>