<svg width="321" height="79" viewBox="0 0 321 79" fill="none" xmlns="http://www.w3.org/2000/svg">
<path d="M160.75 52.4299V38.6099H163.25V44.9599H163.42L168.81 38.6099H171.87L166.53 44.8099L171.92 52.4299H168.91L164.79 46.5099L163.26 48.3199V52.4399H160.76L160.75 52.4299Z" fill="white"/>
<path d="M187.35 52.4299L183.45 38.6099H186.14L188.63 48.7599H188.76L191.42 38.6099H193.87L196.53 48.7699H196.65L199.14 38.6099H201.83L197.93 52.4299H195.46L192.69 42.7299H192.58L189.81 52.4299H187.34H187.35Z" fill="white"/>
<path d="M214.4 52.4299V38.6099H223.39V40.7099H216.91V44.4599H222.93V46.5599H216.91V50.3299H223.45V52.4299H214.41H214.4Z" fill="white"/>
<path d="M236.77 52.4299V38.6099H245.76V40.7099H239.28V44.4599H245.3V46.5599H239.28V50.3299H245.82V52.4299H236.78H236.77Z" fill="white"/>
<path d="M266.66 42.4099C266.6 41.8199 266.33 41.3599 265.87 41.0299C265.4 40.6999 264.8 40.5399 264.06 40.5399C263.54 40.5399 263.09 40.6199 262.72 40.7799C262.34 40.9399 262.06 41.1499 261.86 41.4199C261.66 41.6899 261.56 41.9999 261.56 42.3499C261.56 42.6399 261.63 42.8899 261.76 43.0999C261.89 43.3099 262.07 43.4899 262.3 43.6399C262.53 43.7899 262.78 43.9099 263.06 44.0099C263.34 44.1099 263.62 44.1899 263.9 44.2599L265.19 44.5799C265.71 44.6999 266.21 44.8699 266.7 45.0699C267.18 45.2799 267.62 45.5399 268 45.8499C268.38 46.1599 268.69 46.5399 268.91 46.9899C269.13 47.4399 269.25 47.9599 269.25 48.5599C269.25 49.3699 269.04 50.0799 268.63 50.6899C268.22 51.3099 267.62 51.7799 266.84 52.1299C266.06 52.4699 265.12 52.6499 264.01 52.6499C262.9 52.6499 262 52.4799 261.21 52.1499C260.42 51.8199 259.81 51.3299 259.36 50.6899C258.91 50.0499 258.68 49.2699 258.64 48.3499H261.1C261.14 48.8299 261.28 49.2299 261.55 49.5499C261.81 49.8699 262.15 50.1099 262.57 50.2599C262.99 50.4199 263.46 50.4999 263.98 50.4999C264.5 50.4999 265 50.4199 265.41 50.2499C265.82 50.0799 266.14 49.8599 266.38 49.5599C266.61 49.2699 266.73 48.9199 266.74 48.5199C266.74 48.1599 266.63 47.8599 266.42 47.6299C266.21 47.3899 265.93 47.1999 265.55 47.0399C265.17 46.8799 264.75 46.7399 264.25 46.6099L262.68 46.2099C261.54 45.9199 260.64 45.4699 259.98 44.8799C259.32 44.2799 258.99 43.4899 258.99 42.4999C258.99 41.6899 259.21 40.9699 259.66 40.3599C260.11 39.7499 260.71 39.2699 261.47 38.9299C262.24 38.5899 263.1 38.4199 264.07 38.4199C265.04 38.4199 265.91 38.5899 266.65 38.9299C267.39 39.2699 267.97 39.7399 268.39 40.3399C268.81 40.9399 269.03 41.6299 269.04 42.4099H266.63H266.66Z" fill="white"/>
<path d="M282.31 52.4299V38.6099H284.81V44.4599H291.21V38.6099H293.72V52.4299H291.21V46.5599H284.81V52.4299H282.31Z" fill="white"/>
<path d="M309.05 52.4299H306.38L311.25 38.6099H314.34L319.21 52.4299H316.54L312.85 41.4499H312.74L309.06 52.4299H309.05ZM309.14 47.0099H316.43V49.0199H309.14V47.0099Z" fill="white"/>
<path d="M150.27 65.0001H145.91C145.83 64.4401 145.67 63.9301 145.42 63.4901C145.17 63.0501 144.86 62.6701 144.48 62.3601C144.1 62.0501 143.65 61.8101 143.15 61.6401C142.65 61.4701 142.11 61.3901 141.52 61.3901C140.47 61.3901 139.55 61.6501 138.77 62.1701C137.99 62.6901 137.38 63.4501 136.95 64.4401C136.52 65.4301 136.3 66.6301 136.3 68.0401C136.3 69.4501 136.52 70.7101 136.95 71.7001C137.38 72.6901 137.99 73.4301 138.77 73.9401C139.55 74.4501 140.46 74.6901 141.48 74.6901C142.06 74.6901 142.59 74.6101 143.09 74.4601C143.58 74.3101 144.02 74.0801 144.41 73.7901C144.8 73.5001 145.11 73.1401 145.37 72.7101C145.62 72.2901 145.8 71.8001 145.9 71.2601L150.26 71.2801C150.15 72.2101 149.87 73.1101 149.42 73.9801C148.97 74.8501 148.37 75.6201 147.62 76.3001C146.87 76.9801 145.97 77.5201 144.94 77.9101C143.9 78.3001 142.73 78.5001 141.42 78.5001C139.6 78.5001 137.98 78.0901 136.55 77.2701C135.12 76.4501 134 75.2601 133.17 73.7001C132.34 72.1401 131.93 70.2601 131.93 68.0401C131.93 65.8201 132.35 63.9301 133.18 62.3701C134.01 60.8101 135.15 59.6201 136.58 58.8101C138.01 58.0001 139.62 57.5801 141.41 57.5801C142.59 57.5801 143.69 57.7501 144.7 58.0801C145.71 58.4101 146.61 58.8901 147.39 59.5301C148.17 60.1601 148.81 60.9401 149.3 61.8501C149.79 62.7601 150.11 63.8101 150.25 64.9901L150.27 65.0001Z" fill="white"/>
<path d="M168.26 78.2301H163.65L170.68 57.8701H176.23L183.25 78.2301H178.64L173.54 62.5201H173.38L168.27 78.2301H168.26ZM167.97 70.2301H178.87V73.5901H167.97V70.2301Z" fill="white"/>
<path d="M197.45 78.2301V57.8701H205.48C207.02 57.8701 208.34 58.1601 209.43 58.7501C210.52 59.3401 211.35 60.1501 211.92 61.1901C212.49 62.2301 212.78 63.4201 212.78 64.7701C212.78 66.1201 212.49 67.3101 211.9 68.3501C211.32 69.3801 210.47 70.1901 209.37 70.7701C208.27 71.3501 206.93 71.6401 205.37 71.6401H200.25V68.1901H204.67C205.5 68.1901 206.18 68.0501 206.72 67.7601C207.26 67.4701 207.66 67.0701 207.93 66.5601C208.2 66.0501 208.33 65.4601 208.33 64.7901C208.33 64.1201 208.2 63.5201 207.93 63.0101C207.66 62.5001 207.26 62.1101 206.71 61.8301C206.17 61.5501 205.48 61.4101 204.64 61.4101H201.74V78.2501H197.43L197.45 78.2301Z" fill="white"/>
<path d="M231.65 57.8701V78.2301H227.34V57.8701H231.65Z" fill="white"/>
<path d="M246.18 61.4201V57.8701H262.9V61.4201H256.67V78.2301H252.41V61.4201H246.18Z" fill="white"/>
<path d="M278.44 78.2301H273.83L280.86 57.8701H286.41L293.43 78.2301H288.82L283.72 62.5201H283.56L278.45 78.2301H278.44ZM278.15 70.2301H289.05V73.5901H278.15V70.2301Z" fill="white"/>
<path d="M307.63 78.2301V57.8701H311.94V74.6801H320.67V78.2301H307.63Z" fill="white"/>
<path d="M94.41 41.04C84.35 41.04 74.67 39.43 65.6 36.45C103.56 18.05 144.9 5.52 188.43 0.02C187.37 0.01 186.31 0 185.24 0C138.77 0 95.12 12.07 57.26 33.27C54.08 35.04 50.94 36.88 47.85 38.79C46.46 39.64 45.09 40.51 43.72 41.39C41.31 42.93 38.93 44.51 36.57 46.14C34.06 47.86 31.58 49.64 29.13 51.45C18.81 59.09 9.08 67.47 0 76.52C11.17 68.11 22.8 60.28 34.84 53.08C34.88 53.05 34.93 53.03 34.97 53C44.37 47.36 55.43 45.04 66.29 46.46C83.24 48.67 96.93 55.91 124.23 78.5L94.04 48.31C116.42 46.79 136.49 36.84 151.1 21.62C135.44 33.79 115.77 41.04 94.41 41.04Z" fill="white"/>
</svg>
